<svg id="Group_15163" data-name="Group 15163" xmlns="http://www.w3.org/2000/svg" xmlns:xlink="http://www.w3.org/1999/xlink" width="41.873" height="46.282" viewBox="0 0 41.873 46.282">
  <defs>
    <clipPath id="clip-path">
      <rect id="Rectangle_94" data-name="Rectangle 94" width="41.873" height="46.282" fill="#f4f4f4"/>
    </clipPath>
  </defs>
  <g id="Group_15162" data-name="Group 15162" clip-path="url(#clip-path)">
    <path id="Path_37633" data-name="Path 37633" d="M74.311,24.869a6.126,6.126,0,0,0,2.555.771,5.486,5.486,0,0,0,5.324-4.221,7.591,7.591,0,0,0,.16-1.475c-.01-3.13.006-6.259-.009-9.389a5.376,5.376,0,0,0-3.176-5.138,5.628,5.628,0,0,0-6.8,2.176,7.066,7.066,0,0,0-.717,4.172c.1,1.356-.058,2.4-1.551,2.948a5.837,5.837,0,0,0-1.8,1.36,22.106,22.106,0,0,0-1.483,1.7c-.2-.1-.115-.277-.116-.414-.005-2.5-.044-5,.009-7.5a9.953,9.953,0,0,1,4.521-8.153,10.616,10.616,0,0,1,11.981.3A9.869,9.869,0,0,1,87.22,9.012a80.312,80.312,0,0,1,.091,11.89,10.145,10.145,0,0,1-8.662,9.628,11.016,11.016,0,0,1-3.744-.041.616.616,0,0,1-.6-.678c.026-1.6.01-3.2.01-4.942" transform="translate(-45.613 0)" fill="#f4f4f4"/>
    <path id="Path_37634" data-name="Path 37634" d="M87.256,61.979c.027.06.081.124.081.189.005,2.631.17,5.274-.031,7.889a10.518,10.518,0,0,1-8.211,9.613c-3.965,1-8.873-1.266-10.85-4.593a10.886,10.886,0,0,1-1.586-5.855c.042-3.63-.088-7.265.057-10.89a9.213,9.213,0,0,1,2.712-5.894,10.161,10.161,0,0,1,7.595-3.278,16.51,16.51,0,0,1,2.314.3c.3.037.3.239.3.453,0,1.5,0,3,0,4.5,0,.4-.138.414-.476.27a5.21,5.21,0,0,0-5.926.984,4.829,4.829,0,0,0-1.613,3.6c-.021,3.473-.047,6.946.005,10.418a5.358,5.358,0,0,0,4.481,5.051,5.474,5.474,0,0,0,5.681-2.948,5.83,5.83,0,0,0,.516-2.341,18.728,18.728,0,0,0,0-2.6,1.141,1.141,0,0,1,.721-1.265,10.122,10.122,0,0,0,4.061-3.569c.019-.028.094-.02.169-.033" transform="translate(-45.588 -33.628)" fill="#f4f4f4"/>
    <path id="Path_37635" data-name="Path 37635" d="M5.281,89.625c0-3.236.015-6.471-.013-9.707-.005-.594.164-.782.755-.753.945.046,1.894.036,2.841,0,.515-.018.677.15.67.674-.027,2.236.012,4.472-.027,6.708-.011.64.195.795.8.784,2.078-.035,4.157-.031,6.235,0,.551.008.723-.158.716-.712-.028-2.209.015-4.42-.027-6.629-.013-.673.2-.862.849-.827.944.05,1.894.03,2.84.006.451-.012.587.157.586.6q-.016,9.865,0,19.73c0,.484-.154.645-.634.631-.973-.03-1.948-.036-2.92,0-.55.022-.724-.157-.718-.712.026-2.473-.018-4.946.029-7.418.014-.718-.209-.878-.889-.863-2.051.044-4.1.034-6.156,0-.55-.008-.72.152-.714.708.027,2.5-.01,5,.027,7.5.009.636-.185.818-.8.786-.918-.048-1.842-.044-2.761,0-.565.026-.709-.178-.705-.72.022-3.262.011-6.524.011-9.786" transform="translate(-3.603 -54.15)" fill="#f4f4f4"/>
    <path id="Path_37636" data-name="Path 37636" d="M.406,2.269c1.21-.006,2.42,0,3.63-.021a.773.773,0,0,1,.857.6C5.5,4.7,6.139,6.537,6.77,8.379Q7.981,11.917,9.2,15.453c.229.661.5,1.309.8,2.106.53-1.366,1.044-2.588,1.48-3.837.624-1.786,1.141-3.611,1.8-5.384.667-1.8,1.216-3.639,1.823-5.459.149-.446.327-.653.814-.64,1.078.028,2.157.014,3.236.006.4,0,.651.005.447.562-.488,1.336-.879,2.706-1.347,4.049-.767,2.2-1.524,4.408-2.361,6.583-.922,2.4-1.927,4.759-2.9,7.136-.284.695-.588,1.382-.87,2.078a.725.725,0,0,1-.8.561c-.945-.047-1.893-.021-2.84-.011-.348,0-.5-.087-.648-.469-.606-1.521-1.348-2.987-1.964-4.5-.791-1.946-1.526-3.915-2.254-5.885-.845-2.289-1.7-4.576-2.464-6.892A11.814,11.814,0,0,1,.309,2.468c.117-.024.128-.1.1-.2" transform="translate(-0.211 -1.53)" fill="#f4f4f4"/>
    <path id="Path_37637" data-name="Path 37637" d="M.194,2.339c.032.1.021.174-.1.2-.193-.177-.067-.2.1-.2" transform="translate(0 -1.6)" fill="#f4f4f4"/>
  </g>
</svg>
