<svg xmlns="http://www.w3.org/2000/svg" width="64" height="64" viewBox="0 0 64 64">
  <g id="Group_15931" data-name="Group 15931" transform="translate(0 -253.498)">
    <circle id="Ellipse_85" data-name="Ellipse 85" cx="32" cy="32" r="32" transform="translate(0 253.498)" fill="#fff"/>
    <g id="Group_16080" data-name="Group 16080" transform="translate(0 253.498)">
      <path id="Path_40558" data-name="Path 40558" d="M32,0A32,32,0,1,1,0,32,32,32,0,0,1,32,0Z" fill="#fff" opacity="0.17"/>
      <path id="function_FILL0_wght400_GRAD0_opsz48" d="M15.866,27.023v-2.1h2.067l4.24-4.87-4.24-4.94H15.34L12.853,27.934a4.257,4.257,0,0,1-1.191,2.435,3.285,3.285,0,0,1-2.348.858,3.519,3.519,0,0,1-2.4-.841,2.675,2.675,0,0,1-.964-2.1,2.178,2.178,0,0,1,.526-1.524,1.761,1.761,0,0,1,1.367-.578,1.752,1.752,0,0,1,1.209.42,1.426,1.426,0,0,1,.473,1.121,1.657,1.657,0,0,1-.158.718,1.433,1.433,0,0,1-.438.543,1.288,1.288,0,0,0,.3.105,1.531,1.531,0,0,0,.333.035.927.927,0,0,0,.771-.438,2.907,2.907,0,0,0,.456-1.139L13.2,15.11H8.788v-2.1h4.8l.736-3.714a4.319,4.319,0,0,1,1.261-2.435A3.363,3.363,0,0,1,17.933,6a3.389,3.389,0,0,1,2.365.841,2.718,2.718,0,0,1,.929,2.1,2.178,2.178,0,0,1-.526,1.524,1.761,1.761,0,0,1-1.367.578,1.816,1.816,0,0,1-1.191-.4,1.314,1.314,0,0,1-.491-1.069,1.745,1.745,0,0,1,.14-.683,1.678,1.678,0,0,1,.35-.543.587.587,0,0,0-.21-.123.794.794,0,0,0-.28-.053.983.983,0,0,0-.788.42,2.58,2.58,0,0,0-.473,1.086l-.631,3.329h6.622v2.1H20.736l2.908,3.364,2.733-3.364H24.7v-2.1h6.517v2.1H29.181l-4.2,4.94,4.2,4.87h2.032v2.1H24.7v-2.1h1.682l-2.8-3.259L20.7,24.921h1.682v2.1Z" transform="translate(12.444 12.131)" fill="#22223a"/>
    </g>
  </g>
</svg>
