<svg xmlns="http://www.w3.org/2000/svg" width="64" height="64" viewBox="0 0 64 64">
  <g id="Group_16742" data-name="Group 16742" transform="translate(-2839 -5695)">
    <g id="Group_15947" data-name="Group 15947" transform="translate(2839 5441.502)">
      <circle id="Ellipse_85" data-name="Ellipse 85" cx="32" cy="32" r="32" transform="translate(0 253.498)" fill="#fff"/>
      <g id="ic_samenwerken" transform="translate(15.445 270.6)">
        <path id="handshake_FILL1_wght400_GRAD0_opsz48" d="M20.719,35.8a1.7,1.7,0,0,1-1.7-1.7,1.612,1.612,0,0,1,.124-.6,1.654,1.654,0,0,1,.372-.559l7.656-7.656-.869-.869L18.65,32.072a1.718,1.718,0,0,1-.538.372,1.559,1.559,0,0,1-.621.124,1.626,1.626,0,0,1-1.655-1.655,1.5,1.5,0,0,1,.455-1.159L23.947,22.1l-.869-.869-7.656,7.615a1.718,1.718,0,0,1-.538.372,1.667,1.667,0,0,1-.662.124,1.7,1.7,0,0,1-1.655-1.655,1.559,1.559,0,0,1,.124-.621,1.718,1.718,0,0,1,.372-.538l7.656-7.656L19.85,18l-7.615,7.656a1.566,1.566,0,0,1-.5.331,1.783,1.783,0,0,1-.7.124,1.64,1.64,0,0,1-1.179-.455A1.534,1.534,0,0,1,9.38,24.5a1.559,1.559,0,0,1,.124-.621,1.718,1.718,0,0,1,.372-.538l9.229-9.229,5.256,5.256a4.558,4.558,0,0,0,1.014.766,2.73,2.73,0,0,0,1.345.31,3.156,3.156,0,0,0,2.235-.848,3.221,3.221,0,0,0,.683-3.435,3.38,3.38,0,0,0-.766-1.1L21.464,7.655l.248-.29a5.037,5.037,0,0,1,1.573-1.014A4.6,4.6,0,0,1,25.023,6a5.466,5.466,0,0,1,1.986.352,4.754,4.754,0,0,1,1.655,1.1l6.994,7.035a4.754,4.754,0,0,1,1.1,1.655,5.834,5.834,0,0,1,.352,2.111,4.146,4.146,0,0,1-.372,1.676,5.071,5.071,0,0,1-1.076,1.552L21.878,35.3a1.63,1.63,0,0,1-.579.414,1.834,1.834,0,0,1-.579.083ZM7.683,23.713,5.448,21.478a4.442,4.442,0,0,1-1.076-1.573A4.98,4.98,0,0,1,4,18a4.744,4.744,0,0,1,.414-1.986,5.154,5.154,0,0,1,1.035-1.531l6.994-7.035a5,5,0,0,1,1.573-1.055A4.471,4.471,0,0,1,15.795,6a5.888,5.888,0,0,1,1.986.31,4.65,4.65,0,0,1,1.7,1.138l8.484,8.484a2.4,2.4,0,0,1,.517.7,1.64,1.64,0,0,1,.145.662,1.841,1.841,0,0,1-1.9,1.9,1.782,1.782,0,0,1-.766-.186,2.775,2.775,0,0,1-.766-.559l-6.125-6.125Z" transform="translate(-4 -6)" fill="#004043"/>
      </g>
    </g>
  </g>
</svg>
