<svg xmlns="http://www.w3.org/2000/svg" width="64" height="64" viewBox="0 0 64 64">
  <g id="Group_15931" data-name="Group 15931" transform="translate(0 -253.498)">
    <circle id="Ellipse_85" data-name="Ellipse 85" cx="32" cy="32" r="32" transform="translate(0 253.498)" fill="#fff"/>
    <g id="Group_16080" data-name="Group 16080">
      <path id="Path_40558" data-name="Path 40558" d="M32,0A32,32,0,1,1,0,32,32,32,0,0,1,32,0Z" transform="translate(0 253.498)" fill="#fff" opacity="0.17"/>
      <path id="extension_FILL1_wght400_GRAD0_opsz48" d="M13.316,27.388H7.876a1.777,1.777,0,0,1-1.313-.578A1.924,1.924,0,0,1,6,25.418v-5.5a4.027,4.027,0,0,0,2.361-1.079,3.1,3.1,0,0,0,0-4.534A4.027,4.027,0,0,0,6,13.224v-5.5a1.817,1.817,0,0,1,.563-1.3,1.777,1.777,0,0,1,1.313-.578h5.5A4.324,4.324,0,0,1,14.567,3.8,2.933,2.933,0,0,1,16.662,3a3.354,3.354,0,0,1,2.189.8,3.934,3.934,0,0,1,1.313,2.048h5.5a1.794,1.794,0,0,1,1.3.578,1.794,1.794,0,0,1,.578,1.3v5.5a3.934,3.934,0,0,1,2.048,1.313,3.354,3.354,0,0,1,.8,2.189,2.933,2.933,0,0,1-.8,2.095,4.324,4.324,0,0,1-2.048,1.188v5.5a1.777,1.777,0,0,1-.578,1.313,1.817,1.817,0,0,1-1.3.563h-5.44a3.627,3.627,0,0,0-1.188-2.423,3.46,3.46,0,0,0-2.376-.922,3.167,3.167,0,0,0-2.189.922A3.689,3.689,0,0,0,13.316,27.388Z" transform="translate(13.806 270.304)" fill="#22223a"/>
    </g>
  </g>
</svg>
