<svg xmlns="http://www.w3.org/2000/svg" width="23.467" height="22.586" viewBox="0 0 23.467 22.586">
  <path id="science_FILL1_wght400_GRAD0_opsz48" d="M108.029,238.586a2.063,2.063,0,0,1-1.506-3.451l7.78-8.783v-8.47h-1.631a.908.908,0,0,1-.671-.272.919.919,0,0,1-.271-.674.9.9,0,0,1,.271-.669.918.918,0,0,1,.671-.267H122.71a.908.908,0,0,1,.671.272.919.919,0,0,1,.271.674.9.9,0,0,1-.271.669.918.918,0,0,1-.671.267h-1.631v8.47l7.78,8.783a2.063,2.063,0,0,1-1.506,3.451Z" transform="translate(-105.958 -216)" fill="#003f42"/>
</svg>
