<svg xmlns="http://www.w3.org/2000/svg" width="64" height="64" viewBox="0 0 64 64">
  <g id="Group_15931" data-name="Group 15931" transform="translate(0 -253.498)">
    <circle id="Ellipse_85" data-name="Ellipse 85" cx="32" cy="32" r="32" transform="translate(0 253.498)" fill="#fff"/>
    <g id="Group_16080" data-name="Group 16080">
      <path id="Path_40558" data-name="Path 40558" d="M32,0A32,32,0,1,1,0,32,32,32,0,0,1,32,0Z" transform="translate(0 253.498)" fill="#fff" opacity="0.17"/>
      <g id="ic_world" transform="translate(17.147 270.646)">
        <path id="language_FILL0_wght400_GRAD0_opsz48" d="M18.853,33.705a14.555,14.555,0,0,1-5.83-1.17,15,15,0,0,1-4.716-3.175,14.691,14.691,0,0,1-3.156-4.734A14.893,14.893,0,0,1,4,18.778a14.624,14.624,0,0,1,1.151-5.811,14.8,14.8,0,0,1,3.156-4.7,14.5,14.5,0,0,1,4.716-3.138A14.968,14.968,0,0,1,18.853,4a14.968,14.968,0,0,1,5.83,1.133A14.5,14.5,0,0,1,29.4,8.27a14.8,14.8,0,0,1,3.156,4.7,14.624,14.624,0,0,1,1.151,5.811,14.893,14.893,0,0,1-1.151,5.848A14.691,14.691,0,0,1,29.4,29.361a15,15,0,0,1-4.716,3.175A14.555,14.555,0,0,1,18.853,33.705Zm0-2.154a12.358,12.358,0,0,0,2.172-3.063,18.443,18.443,0,0,0,1.43-4.1H15.288A18.831,18.831,0,0,0,16.68,28.4,12.654,12.654,0,0,0,18.853,31.551ZM15.7,31.106a17.752,17.752,0,0,1-1.6-3.045,22.244,22.244,0,0,1-1.114-3.676H7.416a13.317,13.317,0,0,0,3.268,4.14A16.315,16.315,0,0,0,15.7,31.106Zm6.349-.037a14.867,14.867,0,0,0,4.809-2.562,13.3,13.3,0,0,0,3.435-4.122H24.756a26.9,26.9,0,0,1-1.133,3.639,16.854,16.854,0,0,1-1.578,3.045ZM6.673,22.157h5.9q-.111-1-.13-1.8t-.019-1.578q0-.928.037-1.652t.149-1.615H6.673a10.827,10.827,0,0,0-.353,1.6,13.012,13.012,0,0,0-.093,1.671A14.387,14.387,0,0,0,6.321,20.5a10.467,10.467,0,0,0,.353,1.652Zm8.206,0h7.983q.149-1.151.186-1.875t.037-1.5q0-.743-.037-1.43t-.186-1.838H14.879q-.149,1.151-.186,1.838t-.037,1.43q0,.78.037,1.5t.186,1.875Zm10.211,0h5.941a10.467,10.467,0,0,0,.353-1.652,14.386,14.386,0,0,0,.093-1.727,13.012,13.012,0,0,0-.093-1.671,10.827,10.827,0,0,0-.353-1.6h-5.9q.111,1.3.149,1.987t.037,1.281q0,.817-.056,1.541t-.167,1.838Zm-.371-8.874h5.57a12.031,12.031,0,0,0-3.36-4.27A12.8,12.8,0,0,0,22.009,6.6,16.184,16.184,0,0,1,23.587,9.57a24.15,24.15,0,0,1,1.133,3.713Zm-9.431,0h7.2a14.482,14.482,0,0,0-1.374-3.806,15.19,15.19,0,0,0-2.265-3.249,8.165,8.165,0,0,0-2.005,2.636,23.975,23.975,0,0,0-1.56,4.419Zm-7.872,0h5.607A20.9,20.9,0,0,1,14.063,9.7a17.628,17.628,0,0,1,1.6-3.063,12.25,12.25,0,0,0-8.243,6.647Z" transform="translate(-4 -4)" fill="#003f42"/>
      </g>
    </g>
  </g>
</svg>
